Coordinates
version=1
nRows=21
nColumns=12
inDegrees=yes

Units are S.I. units (second, meters, Newtons, ...)
Angles are in degrees

endheader
time	SC_y	SC_z	SC_x	AC_y	AC_z	AC_x	GH_y	GH_z	GH_yy	EL_x	PS_y
       0.0              -27.14          1.426          2.099          52.33        -0.4725         -7.679          28.25          65.99         -3.225          49.24          32.21
   0.03531              -27.14          1.428            2.1          52.33        -0.4721         -7.678          28.23          65.99         -3.221          49.25          32.23
   0.07063              -27.15           1.43            2.1          52.33        -0.4716         -7.677          28.22          65.99         -3.217          49.26          32.24
    0.1059              -27.15          1.433          2.101          52.33         -0.471         -7.676           28.2           66.0         -3.212          49.27          32.26
    0.1413              -27.16          1.435          2.102          52.33        -0.4705         -7.674          28.18           66.0         -3.207          49.29          32.28
    0.1766              -27.16          1.437          2.102          52.33        -0.4699         -7.673          28.16           66.0         -3.202           49.3          32.29
    0.2119              -27.16           1.44          2.103          52.33        -0.4693         -7.671          28.14          66.01         -3.196          49.31          32.31
    0.2472              -27.17          1.443          2.104          52.32        -0.4686          -7.67          28.12          66.01          -3.19          49.33          32.33
    0.2825              -27.17          1.446          2.105          52.32        -0.4679         -7.668           28.1          66.02         -3.183          49.35          32.36
    0.3178              -27.18          1.449          2.106          52.32        -0.4671         -7.666          28.07          66.02         -3.176          49.36          32.38
    0.3531              -27.19          1.453          2.107          52.32        -0.4663         -7.664          28.04          66.03         -3.169          49.38           32.4
    0.3884              -27.19          1.457          2.108          52.32        -0.4654         -7.662          28.01          66.03         -3.161           49.4          32.43
    0.4238               -27.2          1.461          2.109          52.32        -0.4644          -7.66          27.98          66.04         -3.152          49.43          32.46
    0.4591              -27.21          1.465           2.11          52.32        -0.4633         -7.658          27.95          66.05         -3.143          49.45          32.49
    0.4944              -27.22           1.47          2.112          52.32        -0.4622         -7.655          27.91          66.06         -3.132          49.48          32.53
    0.5297              -27.23          1.475          2.113          52.31         -0.461         -7.652          27.87          66.06         -3.121          49.51          32.57
     0.565              -27.24          1.481          2.115          52.31        -0.4597         -7.649          27.83          66.07         -3.109          49.54          32.61
    0.6003              -27.25          1.487          2.117          52.31        -0.4582         -7.645          27.78          66.08         -3.096          49.57          32.65
    0.6356              -27.26          1.493          2.119          52.31        -0.4566         -7.642          27.73          66.09         -3.082          49.61           32.7
    0.6709              -27.27          1.501          2.121          52.31        -0.4549         -7.638          27.68          66.11         -3.066          49.65          32.75
    0.7063              -27.29          1.509          2.123           52.3         -0.453         -7.633          27.62          66.12         -3.049          49.69          32.81
